<?xml version="1.0" standalone="no"?>
<!DOCTYPE svg PUBLIC "-//W3C//DTD SVG 20010904//EN"
 "http://www.w3.org/TR/2001/REC-SVG-20010904/DTD/svg10.dtd">
<svg version="1.0" xmlns="http://www.w3.org/2000/svg"
 width="700.000000pt" height="700.000000pt" viewBox="0 0 700.000000 700.000000"
 preserveAspectRatio="xMidYMid meet">
<metadata>
Created by potrace 1.14, written by Peter Selinger 2001-2017
</metadata>
<g transform="translate(0.000000,700.000000) scale(0.100000,-0.100000)"
fill="#000000" stroke="none">
<path d="M932 6540 c-236 -62 -412 -239 -472 -476 -20 -76 -20 -117 -20 -2564
0 -2438 0 -2488 20 -2563 33 -130 74 -201 175 -302 101 -101 172 -142 302
-175 75 -20 125 -20 2563 -20 2424 0 2489 0 2562 19 124 32 212 82 304 175 93
92 143 180 175 304 19 73 19 138 19 2562 0 2448 0 2488 -20 2564 -61 238 -238
415 -476 476 -76 20 -116 20 -2568 19 -2423 0 -2493 -1 -2564 -19z m2073 -433
c249 -73 414 -242 477 -489 17 -67 20 -101 15 -183 -15 -274 -182 -495 -446
-589 l-86 -31 -740 -3 c-835 -3 -832 -3 -985 70 -69 33 -101 57 -171 127 -134
134 -192 274 -192 461 0 183 60 327 188 456 113 114 230 174 380 194 33 4 384
7 780 6 653 -2 726 -3 780 -19z m2817 -1757 c129 -40 238 -149 278 -278 19
-60 20 -94 20 -572 0 -478 -1 -512 -20 -572 -40 -129 -149 -238 -278 -278 -63
-20 -99 -20 -2322 -20 -2223 0 -2259 0 -2322 20 -129 40 -238 149 -278 278
-19 60 -20 94 -20 572 0 481 1 511 20 573 39 127 148 236 276 277 57 18 133
19 2320 19 2228 1 2263 1 2326 -19z m110 -2192 c74 -35 141 -103 170 -176 23
-56 23 -63 23 -447 0 -463 0 -461 -99 -561 -107 -107 -7 -99 -1221 -99 l-1050
0 -67 33 c-73 36 -124 87 -160 161 -23 45 -23 51 -23 461 0 404 1 416 22 462
41 90 132 166 227 189 17 4 501 6 1076 6 l1045 -2 57 -27z"/>
<path d="M1413 5945 c-180 -49 -311 -181 -358 -362 -66 -251 96 -521 350 -588
83 -21 1481 -23 1561 -1 120 32 224 109 294 217 54 84 73 164 68 287 -3 93 -6
105 -46 185 -68 137 -180 228 -324 262 -91 21 -1466 21 -1545 0z m309 -88
c219 -108 306 -367 197 -586 -36 -71 -129 -163 -200 -196 -218 -101 -470 -12
-576 203 -37 75 -38 78 -38 191 0 110 2 120 32 184 37 77 116 163 184 198 80
41 119 49 225 46 94 -2 106 -5 176 -40z"/>
<path d="M1414 3929 c-46 -13 -91 -69 -99 -121 -3 -24 -5 -179 -3 -345 3 -286
4 -303 24 -329 11 -15 33 -37 48 -48 l27 -21 2089 0 2089 0 27 21 c15 11 37
33 48 48 20 26 21 40 21 366 0 326 -1 340 -21 366 -11 15 -33 37 -48 48 l-27
21 -2072 2 c-1232 1 -2085 -2 -2103 -8z"/>
<path d="M3808 2066 c-84 -23 -158 -96 -184 -182 -21 -69 -20 -639 1 -710 19
-65 73 -126 138 -159 l53 -25 1004 2 c1124 3 1036 -3 1113 75 73 72 72 66 72
469 l0 361 -30 49 c-37 59 -107 108 -175 123 -78 17 -1929 14 -1992 -3z"/>
</g>
</svg>
