<svg version="1.0" viewBox="0 0 1920 672" xmlns="http://www.w3.org/2000/svg"><path d="m1884 1.7e-6h-1848c-19.8 0-35.9 16.1-35.9 36v628c0 4.48 3.63 8.12 8.11 8.12h1904c4.48 0 8.12-3.64 8.12-8.12v-628c0-19.8-16.1-36-35.9-36z"/><path d="m35.9 16.2c-10.9 0-19.7 8.82-19.7 19.7v436h69.2c48.4 87.6 142 147 249 147 107 0 200-59.4 249-147h1321v-436c-2e-4 -10.9-8.82-19.7-19.7-19.7zm977 37.9c52-2e-6 96 17.9 132 53.8 35.9 35.9 53.9 79.8 53.9 132 0 52-17.7 95.4-53 130-37.5 36.8-81.7 55.2-133 55.2-50.5 0-94-18.3-131-54.8-36.5-36.5-54.8-80.1-54.8-131 0-50.7 18.3-94.6 54.8-132 35.6-35.9 79.1-53.8 131-53.8zm455 0c52-2e-6 96 17.9 132 53.8 35.9 35.9 53.9 79.8 53.9 132 0 51.9-17.7 95.4-52.9 130-37.5 36.8-81.8 55.2-133 55.2-50.5 0-94-18.3-130-54.8-36.5-36.5-54.8-80.1-54.8-131s18.2-94.6 54.8-132c35.6-35.9 79.1-53.8 130-53.8zm-1134 8.78c70.1 0 129 24.2 178 72.6 48.4 48.4 72.6 108 72.6 178 0 70.1-23.8 129-71.3 176-50.5 49.6-110 74.5-179 74.5-68 0-127-24.6-176-73.8-49.2-49.2-73.8-108-73.8-176 0-68.4 24.6-128 73.8-178 48-48.4 107-72.6 176-72.6z" fill="#aab2ab"/><path d="m1014 87.6c-42.1 2e-6 -77.7 14.8-107 44.5-30.3 30.6-45.5 66.5-45.5 108 0 41.1 15 76.7 45.1 107 30 30 65.8 45 107 45 41.5 0 77.6-15.1 108-45.4 29.1-28.1 43.7-63.6 43.7-106 0-42.4-14.9-78.2-44.6-108-29.4-29.7-65.2-44.5-107-44.5zm455 0c-42.1 2e-6 -77.7 14.8-107 44.5-30.3 30.6-45.5 66.5-45.5 108 0 41.1 15 76.7 45.1 107 30 30 65.8 45 107 45 41.5 0 77.6-15.1 108-45.4 29.1-28.1 43.7-63.6 43.7-106 0-42.4-14.9-78.2-44.6-108-29.4-29.7-65.2-44.5-107-44.5zm-1134 20.4c-56.7 0-105 20-144 60.1-40.9 41.3-61.3 89.7-61.3 145 0 55.5 20.2 103 60.7 144 40.5 40.5 88.7 60.7 145 60.7 55.9 0 105-20.4 146-61.3 39.2-38 58.8-85.7 58.8-143 0-57.2-19.9-106-59.8-146-39.8-39.8-88.1-59.8-145-59.8zm679 11.9a26 26 0 0 1 25.9 26 26 26 0 0 1-25.9 25.9 26 26 0 0 1-26-25.9 26 26 0 0 1 26-26zm454 22c59.2 0 95.3 43 95.3 100 0 55.9-38.4 99.4-96.2 99.4-39.8 0-75.4-24.5-81.9-72.6h46.7c1.4 25 17.6 33.8 40.8 33.8 26.4 0 43.5-24.5 43.5-61.9 0-39.3-14.8-60.1-42.6-60.1-20.4 0-37.9 7.4-41.7 32.8l13.6-0.0625-36.8 36.8-36.8-36.8 14.7 0.0625c7.39-46.7 40.3-71.6 81.4-71.6zm-491 39.9h75.9c6.61 0 12 5.35 12 12v75.9h-21.2v89.8h-57.5v-89.8h-21.2v-75.9c0-6.62 5.39-12 12-12zm-710 53.7c30.8 0 52.9 12.1 66.2 36.4l-33.1 16.9c-6.25-13.6-15.6-20.4-28.1-20.4-22.1 0-33.1 14.8-33.1 44.5 0 29.7 11 44.6 33.1 44.6 14.6 0 25-7.23 31.2-21.7l30.6 16.2c-14.6 25.9-36.4 38.9-65.6 38.9-22.5 0-40.5-6.91-54-20.7-13.5-13.8-20.3-32.8-20.3-57 0-23.8 6.95-42.7 20.9-56.7 14-14 31.3-21 52.2-21zm145 0c30.8 0 52.8 12.1 66.1 36.4l-33.8 16.9c-6.26-13.6-15.4-20.4-27.5-20.4-22.5 0-33.8 14.8-33.7 44.5 0 29.7 11.2 44.6 33.7 44.6 14.6 0 24.8-7.23 30.6-21.7l31.3 16.2c-14.5 25.9-36.4 38.9-65.5 38.9-22.5 0-40.4-6.91-53.9-20.7-13.5-13.8-20.2-32.8-20.2-57 0-23.8 6.84-42.7 20.6-56.7 13.7-14 31.2-21 52.4-21zm989 286c-4.74 0-9.48 0.656-14.2 1.94-4.75 1.29-9.01 3.27-12.8 5.94-3.76 2.68-6.8 6.03-9.13 10-2.31 4.01-3.5 8.71-3.5 14.2 0 4.84 0.933 8.99 2.75 12.4 1.83 3.42 4.22 6.26 7.19 8.53 2.97 2.27 6.32 4.13 10.1 5.56 3.76 1.44 7.6 2.64 11.6 3.62 3.85 1.09 7.68 2.08 11.4 2.97 3.74 0.893 7.11 1.95 10.1 3.12 2.97 1.2 5.37 2.65 7.19 4.44 1.83 1.79 2.75 4.1 2.75 6.97 0 2.68-0.696 4.89-2.09 6.63-1.37 1.73-3.09 3.11-5.16 4.09-2.08 0.985-4.33 1.66-6.69 2-2.38 0.35-4.59 0.5-6.66 0.5-3.06 0-6-0.348-8.88-1.09-2.86-0.738-5.34-1.91-7.47-3.44-2.13-1.54-3.85-3.52-5.12-6-1.29-2.47-1.94-5.5-1.94-9.06h-22.6c-0.093 6.54 1.09 12.2 3.56 16.9 2.48 4.75 5.81 8.68 10 11.8 4.21 3.07 9.08 5.35 14.6 6.78 5.5 1.44 11.2 2.16 17 2.16 7.2 0 13.6-0.847 19.1-2.53 5.48-1.68 10.1-4.03 13.8-7.06 3.71-3.01 6.53-6.59 8.41-10.8 1.88-4.15 2.81-8.68 2.81-13.5 0-5.94-1.27-10.8-3.78-14.6-2.53-3.8-5.51-6.84-8.97-9.12-3.46-2.27-6.93-3.93-10.4-4.97-3.51-1.04-6.25-1.76-8.22-2.16-6.63-1.68-12-3.07-16.1-4.16-4.1-1.09-7.31-2.16-9.62-3.25-2.31-1.09-3.86-2.27-4.66-3.56-0.792-1.28-1.19-2.98-1.19-5.06 0-2.27 0.491-4.14 1.47-5.62 0.978-1.48 2.24-2.73 3.78-3.72 1.52-0.987 3.21-1.69 5.09-2.09 1.86-0.388 3.73-0.562 5.59-0.562 2.86 0 5.48 0.223 7.91 0.719 2.41 0.489 4.56 1.35 6.44 2.53 1.86 1.2 3.37 2.83 4.5 4.91 1.12 2.07 1.77 4.68 1.97 7.84h22.6c0-6.13-1.16-11.3-3.47-15.7-2.33-4.31-5.48-7.85-9.44-10.6-3.94-2.77-8.48-4.77-13.6-6-5.09-1.24-10.4-1.88-15.9-1.88zm-489 2.63v106h51.4c4.77 0 9.42-0.586 13.9-1.78 4.5-1.18 8.51-3.02 12-5.5 3.51-2.48 6.33-5.66 8.41-9.56 2.08-3.91 3.13-8.53 3.13-13.9 0-6.63-1.61-12.3-4.84-17-3.23-4.7-8.13-8-14.7-9.88 4.75-2.27 8.36-5.19 10.8-8.75 2.44-3.56 3.66-8 3.66-13.3 0-4.94-0.838-9.11-2.47-12.5-1.63-3.36-3.94-6.04-6.91-8.06-2.98-2.03-6.56-3.51-10.7-4.41-4.16-0.886-8.77-1.31-13.8-1.31zm93.1 0 38.9 64.7v41.2h23.4v-40.7l39.3-65.3h-26l-24.7 41.8-24.8-41.8zm485 0-40.1 106h23.4l8.31-23.6h39.7l8 23.6h24.2l-39.7-106zm-554 18.1h21.8c2.08 0 4.06 0.182 6 0.531 1.93 0.342 3.64 0.958 5.12 1.84 1.49 0.893 2.69 2.1 3.59 3.69 0.886 1.58 1.31 3.63 1.31 6.09 0 4.44-1.33 7.61-4 9.59-2.69 1.97-6.09 2.97-10.2 2.97h-23.6zm566 7.97h0.312l13.3 38.8h-27.5zm-566 32.7h25.4c5.05 0 9.11 1.15 12.2 3.47 3.07 2.32 4.62 6.22 4.62 11.7 0 2.77-0.49 5.03-1.44 6.81-0.947 1.78-2.2 3.18-3.78 4.22-1.58 1.03-3.42 1.78-5.5 2.22-2.08 0.45-4.25 0.688-6.53 0.688h-25z" fill="#fff"/></svg>
