<svg version="1.1" viewBox="0 0 1920 530" xmlns="http://www.w3.org/2000/svg"><path d="m297 0.042c-5.28-0.161-11 0.139-17.2 0.934l-228 30.1c-27.8 3.57-58.3 22.5-49.6 79l30.4 178c4.79 36.6 18.4 62.4 66.2 62.4h291c-11.7-98.5-25.2-196-36.8-294-3.69-31.1-18.9-54.6-55.9-55.8z" fill="#e64b07"/><path d="m93.6 4.04v52.6h19.8c6.91 0 10.9 3.4 10.9 10.7v283h62.7v-114c0-11.7 0.99-22.4 3.95-32.1 9.4-30.2 35.1-51.6 68.2-51.6 31.6 0 40 20.5 40 50.7v25.5a19.2 26.4 30.9 0 1 28.6-11.1 19.2 26.4 30.9 0 1 3.37 32.3 19.2 26.4 30.9 0 1-30 13.3 19.2 26.4 30.9 0 1-1.97-1.37v55.4c0 23.4 9.9 33.1 33.1 33.1h59.8v-52.1h-19.8c-6.92 0-10.9-3.89-10.9-10.7v-96.9c0-65.8-31.6-94.5-88-94.5-43.5 0-74.6 25.3-86.4 49.2h-0.992s0.992-8.77 0.992-20.9v-87.2c0-22.4-10.4-32.6-33.6-32.6zm139 176a16.4 16.4 0 0 1 16.4 16.4 16.4 16.4 0 0 1-16.4 16.4 16.4 16.4 0 0 1-16.4-16.4 16.4 16.4 0 0 1 16.4-16.4zm41.5 6.48a16.4 16.4 0 0 1 16.4 16.4 16.4 16.4 0 0 1-16.4 16.4 16.4 16.4 0 0 1-16.4-16.4 16.4 16.4 0 0 1 16.4-16.4zm-62 47.2c1.09 0.0618 2.38 0.872 3.86 2.6 8.38 9.78 31.6 13.4 62.9 0.0437 19.3-11.3-16.1 57.2-43.2 61.9-26.4 4.6-34.1-65.1-23.5-64.5z" fill="#fff"/><path d="m955 295c0 38.7 31.3 60.3 65.6 60.3 43.4 0 58.1-34.2 58.1-34.2h0.754s-0.383 3.42-0.383 8.35c0 11.4 6.79 21.3 24.5 21.3h43v-40.6h-15.1c-5.28 0-8.3-3.04-8.3-8.35v-72.1c0-43.3-18.9-77-83-77-20 0-70.5 3.79-70.5 39.8v20.5h44.5v-10.2c0-10.6 17-12.9 25.6-12.9 32.6-1.06 35.2 20 35.4 39.5-79.1 3.79-117 18.7-120 65.7zm48.3-2.28c1.71-30.3 38.9-30.1 72.8-30.4-1.48 30.3-22.5 54.6-43.7 55.4-19.6 0-29-12.1-29-25zm-373 58.1h47.5v-85c2.24-43.4 22.1-68.2 49.4-69.1 23 0 26 17.8 26 38.7v115h47.9v-85c1.06-37.8 21.3-68.2 49-69.1 22.2 0 26.4 16.7 26.4 38.7v89.6c0 18.2 7.54 25.8 25.6 25.8h45.3v-40.6h-14.7c-5.28 0-8.3-3.04-8.3-8.35v-75.5c0-50.9-23-73.6-63-73.6-30.5 0-55.4 19-65.6 39.8h-0.754c-8.3-26.2-27.2-39.8-56.2-39.8-30.2 0-53.2 21.3-62.2 40.2h-0.754c0.41-5.07 0.383-8.81 0.383-14 0-13.7-8.3-21.6-25.3-21.6h-44.1v41h15.1c5.28 0 8.3 2.66 8.3 8.35zm-229-69.1c0 52.7 25.3 73.6 66.4 73.6 33.2 0 57.3-20.1 66.4-40.2h0.754c-0.399 5.17-0.383 8.73-0.383 14 0 13.7 8.67 21.6 25.3 21.6h44.1v-40.6h-15.1c-5.28 0-8.3-3.04-8.3-8.35v-145h-47.9v88.8c0 34.5-19.2 65.3-53.9 65.3-23.8 0-29.8-15.9-29.8-39.5v-89.2c0-17.5-7.54-25.4-25.3-25.4h-45.6v41h15.1c5.28 0 8.3 2.66 8.3 8.35zm970 37.5s26.9 33.9 79.3 33.9c41.5 0 73.3-22.3 73.3-58.1 0-63.3-101-57.3-101-87.1 0-11.2 11.6-17.1 28.4-17.1 10.5 0 23.9 4.47 23.9 13.4v9.31h41.9v-19.7c0-30.9-41.1-39.5-66.9-39.5-39.6 0-74 17.5-74 55.5 0 61.4 101 61.1 101 87.9 0 12.7-11.2 18.6-25.8 18.6-32.5 0-56.8-27.9-56.8-27.9zm-203 29.4h47.1v-87.1c0.536-47.6 25.7-63.4 55-64 23.9 0 29.9 15.6 29.9 38.7v87.1c0 17.9 7.48 25.3 25.4 25.3h45.3v-39.8h-15c-5.24 0-8.23-2.98-8.23-8.19v-74.1c0-50.3-24.3-72.2-66.6-72.2-38.5 0-59.1 23.5-67.3 39.5h-0.748c0.8-4.96 0.748-8.61 0.748-13.8 0-13.4-8.23-21.2-25.1-21.2h-43.8v40.2h15c5.24 0 8.23 2.61 8.23 8.19z" fill="#4e4e4e"/><path d="m1589 108v52.6h-26.4v21.6h26v99.6c0 63.6 46.1 70.8 68.9 70.8 6.7 0 11.4-0.763 11.4-0.763v-0.752h19.5l55.2-81.4h0.794l54.8 81.4h31.5l-69.3-99.2 42.9-61.3c4.33-6.43 10.2-7.57 18.5-7.57l17.5-0.763v99.6c0 63.6 46.1 70.8 68.9 70.8 6.7 0 11.4-0.763 11.4-0.763v-23.1s-3.54 0.752-9.06 0.752c-15 0-44.5-5.68-44.5-50.3v-96.9h49.6v-21.6h-49.6v-52.6h-26.4v52.6h-26.4v0.0553c-18.5 0.272-23.5 4.03-34.8 20.8l-35.1 53.7h-0.794l-35.1-53.7c-11.8-17.8-16.9-20.8-37-20.8h-56.1v-52.6zm26.4 74.2h41.5v0.763h8.28c7.88 0 13.4 1.51 18.1 7.95l42.9 60.9-57.3 82.4v-5.56s-3.55 0.752-9.07 0.752c-15 0-44.5-5.68-44.5-50.3zm-79.5 169h29.6v-30.3h-29.6z" fill="#7a7a7a"/><path d="m1850 493s8.19 11.7 25.5 11.7c13.2 0 23.3-7.56 23.3-18.7 0-22.1-37.3-18.7-37.3-33.7 0-6.5 5.55-9.68 14.8-9.68 4.36 0 11.5 1.86 11.5 6.76v3.18h8.46v-5.7c0-9.41-13.5-12.1-20.2-12.1-13.3 0-23.7 5.97-23.7 18 0 21.5 37.3 18.8 37.3 33.4 0 7.03-6.61 10.6-14 10.6-13.1 0-20.5-10.1-20.5-10.1zm-71-23.2c0 20.5 15.1 34.9 34.8 34.9 15.1 0 24.7-9.54 24.7-9.54l-4.36-6.76s-7.8 8.22-20 8.22c-13.7 0-25.5-9.68-25.8-26.5h51s0.263-2.92 0.263-4.51c0-16.6-9.52-30.8-27.9-30.8-17.8 0-32.8 13.1-32.8 35zm9.78-6.89c2.25-13.4 11.9-20.5 22.9-20.5 9.78 0 18.2 6.76 18.8 20.5zm-83.9 40.2h8.99v-31.9c0-3.18 0.263-6.23 1.06-9.01 3.04-11 12.8-18.8 24.2-18.8 12.8 0 14.4 9.28 14.4 19.8v31.9c0 5.7 2.38 8.09 8.06 8.09h9.38v-7.82h-5.55c-1.85 0-2.91-0.928-2.91-2.92v-31.7c0-16.4-5.81-25.8-22.3-25.8-15.6 0-24.1 10.7-26.4 16.8h-0.262c0.29-2.9 0.257-4.8 0.262-7.82 0-5.04-2.51-7.42-8.06-7.42h-9.25v7.82h5.55c1.85 0 2.91 1.06 2.91 2.92zm-32.8-81.8h8.72v-11.4h-8.72zm0.263 73.7c0 5.7 2.38 8.09 8.06 8.09h9.38v-7.82h-5.55c-1.85 0-2.91-0.928-2.91-2.92v-47.9c0-5.7-2.38-8.09-8.06-8.09h-9.38v7.82h5.55c1.85 0 2.91 1.06 2.91 2.92zm-81 8.09h8.99v-31.9c0-3.18 0.263-6.23 1.06-8.88 3.04-11.1 12.8-19 24.1-19 13 0 14.5 9.28 14.5 19.8v31.9c0 5.7 2.38 8.09 8.06 8.09h9.38v-7.82h-5.55c-1.85 0-2.91-0.928-2.91-2.92v-31.7c0-16.4-5.82-25.8-22.3-25.8-14.9 0-23.8 10.2-26.3 16.6h-0.263c0.399-6.49 0.263-12.2 0.263-33.7 0-5.43-2.38-7.82-8.06-7.82h-9.38v7.82h5.55c1.85 0 2.91 1.06 2.91 2.92zm-75.2-33.3c0 20.7 15.1 34.9 34.9 34.9 17 0 26-10.9 26-10.9l-4.23-6.76s-7.8 9.41-21.4 9.41c-14 0-26-10.2-26-26.6 0-16.2 11.5-26.9 25.8-26.9 5.55 0 15.2 2.65 15.2 8.22v3.84h8.46v-5.97c0-11-16.1-14.2-23.7-14.2-19.8 0-35 14.6-35 35zm-69.9 15.1c0 13.3 11.5 19.8 22.6 19.8 16.7 0 22.2-14.4 22.1-14.4h0.263s-0.131 1.99-0.131 4.9c0 5.44 2.25 7.95 7.93 7.95h9.12v-7.82h-5.55c-1.85 0-2.91-0.928-2.91-2.92v-31.9c0-14.3-5.02-25.6-26-25.6-5.81 0-21.7 1.99-21.7 11.3v6.36h8.59v-4.24c0-4.9 9.65-5.83 13-5.83 15.6 0.263 17 9.48 17.2 19.6-26.6 2.28-44.4 8.42-44.4 22.9zm9.25-0.53c0-15 20.9-15.2 31.3-15.2h3.83v3.05c0 11.5-7.67 24.8-20.4 24.8-9.91 0-14.8-6.36-14.8-12.6zm-123 18.7h8.85c5.68 0 7.66-2.39 8.06-8.09 1.32-23.3 4.51-46.5 4.76-69.9h0.262c7.21 20.8 17.5 40.5 26.8 60.6h8.33c8.68-20.2 20-39.4 26.8-60.3h0.262c0.531 23 2.97 46.3 4.76 69.6 0.399 5.7 2.38 8.09 8.06 8.09h8.99v-8.22h-5.02c-1.85 0-2.78-0.928-2.91-2.92l-6.48-82.1h-9.38c-9.42 21.8-20.4 43.1-29.1 65.2h-0.263c-8.91-21.4-19.3-43.4-29.2-65.2h-9.38l-6.48 82.1c-0.131 1.99-1.06 2.92-2.91 2.92h-4.89zm-70.8-24.3c0 22.3 15.5 24.8 23.1 24.8 2.25 0 3.83-0.266 3.83-0.266v-8.09s-1.19 0.265-3.04 0.265c-5.02 0-14.9-1.99-14.9-17.6v-33.9h16.7v-7.56h-16.7v-18.4h-8.85v18.4h-8.85v7.56h8.72zm-87.8-9.41c0 20.1 15.7 35.3 35.2 35.3 19.3 0 35-15.1 35-35.3 0-19.8-15.7-34.6-35.2-34.6-19.3 0-35 14.8-35 34.6zm9.25 0c0-15.1 11.6-26.4 25.9-26.4 14.1 0 25.8 11.3 25.8 26.4 0 15.5-11.6 27.2-25.8 27.2-14.3 0-25.9-11.7-25.9-27.2zm-109 33.7h9.78c5.68 0 8.06-2.39 8.06-8.09-0.786-23.4 1.42-47-0.793-70.4h0.263c16.9 26.6 36.5 52.4 55.1 78.5h8.46v-82.1c0-1.99 1.06-2.92 2.91-2.92h5.68v-8.22h-9.78c-5.68 0-8.06 2.39-8.06 8.09 0.638 23.5-1.16 47.1 0.661 70.5h-0.263c-16.6-26.8-36.4-52.6-55-78.6h-8.46v82.1c0 1.99-1.06 2.92-2.91 2.92h-5.68zm-59.3-10.9-7.53 23.7h7.53l9.65-23.7zm-77.7-22.4c0 20.5 15.1 34.9 34.8 34.9 15.1 0 24.7-9.54 24.7-9.54l-4.36-6.76s-7.8 8.22-20 8.22c-13.7 0-25.5-9.68-25.8-26.5h51s0.263-2.92 0.263-4.51c0-16.6-9.52-30.8-27.9-30.8-17.8 0-32.8 13.1-32.8 35zm9.78-6.89c2.25-13.4 11.9-20.5 22.9-20.5 9.78 0 18.2 6.76 18.8 20.5zm-36.1 32.1c0 5.7 2.38 8.09 8.06 8.09h9.38v-7.82h-5.55c-1.85 0-2.91-0.928-2.91-2.92v-74.4c0-5.7-2.38-8.09-8.06-8.09h-9.38v7.82h5.55c1.85 0 2.91 1.06 2.91 2.92zm-76.3 34.6h8.99c-0.274-12.5 0.498-25-0.263-37.5h0.263s5.55 12.6 21.8 12.6c17.2 0 29.7-13.8 29.7-34.9 0-20.7-11.1-35-28.9-35-17.6 0-22.9 13.1-22.9 13.1h-0.263s0.131-1.86 0.131-4.51c0-4.64-2.25-7.03-7.93-7.03h-9.12v7.82h5.55c1.85 0 2.91 1.06 2.91 2.92zm8.72-59.7c0-19 10.4-26.9 21.5-26.9 12.4 0 21 10.5 21 26.8 0 17-9.65 26.9-21.4 26.9-13.9 0-21.1-13.4-21.1-26.8zm-95.7-0.53c0 20.1 15.7 35.3 35.2 35.3 19.3 0 35-15.1 35-35.3 0-19.8-15.7-34.6-35.2-34.6-19.3 0-35 14.8-35 34.6zm9.25 0c0-15.1 11.6-26.4 25.9-26.4 14.1 0 25.8 11.3 25.8 26.4 0 15.5-11.6 27.2-25.8 27.2-14.3 0-25.9-11.7-25.9-27.2zm-81.7 0.398c0 20.5 15.1 34.9 34.8 34.9 15.1 0 24.7-9.54 24.7-9.54l-4.36-6.76s-7.8 8.22-20 8.22c-13.7 0-25.5-9.68-25.8-26.5h51s0.262-2.92 0.262-4.51c0-16.6-9.52-30.8-27.9-30.8-17.8 0-32.8 13.1-32.8 35zm9.78-6.89c2.25-13.4 11.9-20.5 22.9-20.5 9.78 0 18.2 6.76 18.8 20.5zm-74.8 40.2h9.25v-36.6h21.4c16.5 0 28.7-11.1 28.7-28.5 0-17.2-12.2-28.1-28.7-28.1h-39.3v8.22h8.59zm9.25-44.8v-40.2h20.4c12.2 0 20.2 7.29 20.2 19.9 0 12.7-8.06 20.3-20.4 20.3zm-126 11.5c0 20.5 15.1 34.9 34.8 34.9 15.1 0 24.7-9.54 24.7-9.54l-4.36-6.76s-7.8 8.22-20 8.22c-13.7 0-25.5-9.68-25.8-26.5h51s0.263-2.92 0.263-4.51c0-16.6-9.51-30.8-27.9-30.8-17.8 0-32.8 13.1-32.8 35zm9.78-6.89c2.25-13.4 11.9-20.5 22.9-20.5 9.78 0 18.2 6.76 18.8 20.5zm-48.8 40.2h8.99v-28.1c0-4.24 0.531-8.75 1.85-13 2.91-9.81 9.91-17.2 19.3-17.2 1.72 0 3.3 0.266 3.3 0.266v-8.88s-1.72-0.398-3.57-0.398c-10.4 0-17.8 7.69-21 17.8h-0.263c0.328-3.4 0.263-5.89 0.263-9.54 0-5.3-2.51-7.56-8.06-7.56h-9.25v7.82h5.55c1.85 0 2.91 1.06 2.91 2.92zm-96.7 0h4.36c6.61 0 8.46-1.33 10.8-7.69l8.19-22h36.9l8.06 22c2.38 6.36 4.36 7.69 11 7.69h4.23v-8.22h-1.59c-2.51 0-3.83-0.398-4.76-2.92l-30.4-82.1h-9.91l-30.4 82.1c-0.925 2.52-2.38 2.92-4.76 2.92h-1.72zm25.9-37.8c5.36-15.1 11.5-29.9 15.7-45.3h0.263c4.13 15.4 10.3 30.2 15.9 45.3zm-131 4.51c0 20.5 15.1 34.9 34.8 34.9 15.1 0 24.7-9.54 24.7-9.54l-4.36-6.76s-7.8 8.22-20 8.22c-13.7 0-25.5-9.68-25.8-26.5h51s0.263-2.92 0.263-4.51c0-16.6-9.51-30.8-27.9-30.8-17.8 0-32.8 13.1-32.8 35zm9.78-6.89c2.25-13.4 11.9-20.5 22.9-20.5 9.78 0 18.2 6.76 18.8 20.5zm-103 40.2h11l22.3-78.6h0.263l20.4 78.6h11l21.4-82.1c0.661-2.52 2.25-2.92 4.89-2.92h1.45v-8.22h-4.1c-6.61 0-9.65 1.19-11.2 7.69l-18.2 74.2h-0.263l-20.7-81.5h-9.12l-23 81.5h-0.263l-18.1-74.2c-1.59-6.5-4.62-7.69-11.2-7.69h-4.1v8.22h1.59c2.51 0 4.23 0.398 4.89 2.92z" fill="#4e4e4e"/></svg>
