<svg version="1.1" viewBox="0 0 99 32" xmlns="http://www.w3.org/2000/svg" xmlns:xlink="http://www.w3.org/1999/xlink"><defs><linearGradient id="c" x1="44.2" x2="44.2" y1="3.4" y2="28.6" gradientUnits="userSpaceOnUse"><stop stop-color="#6682c0" offset="0"/><stop stop-color="#17459b" offset="1"/></linearGradient><linearGradient id="a" x1="44.2" x2="44.2" y1="3.39" y2="28.6" gradientUnits="userSpaceOnUse"><stop stop-color="#4ea2d4" offset=".2"/><stop stop-color="#1847a1" offset="1"/></linearGradient><linearGradient id="b" x1="44.2" x2="44.2" y1="-19.4" y2="38.3" gradientTransform="translate(-166 -32)" gradientUnits="userSpaceOnUse"><stop stop-color="#4ea2d4" offset=".249"/><stop stop-color="#1847a1" offset="1"/></linearGradient></defs><path d="m82.8-9.76e-4a16.2 16 0 0 0-8.48 2.39h-66.7c-4.26 0-7.69 3.43-7.69 7.69v11.8c0 4.26 3.43 7.69 7.69 7.69h66.6a16.2 16 0 0 0 8.56 2.44 16.2 16 0 0 0 16.2-16 16.2 16 0 0 0-16.2-16z" fill="url(#c)"/><path d="m82.8 1a15.2 15 0 0 0-8.05 2.39h-66.7c-3.95 0-7.12 3.18-7.12 7.12v10.9c0 3.95 3.18 7.12 7.12 7.12h66.6a15.2 15 0 0 0 8.12 2.44 15.2 15 0 0 0 15.2-15 15.2 15 0 0 0-15.2-15z" fill="url(#a)"/><ellipse transform="scale(-1)" cx="-82.8" cy="-16" rx="11" ry="10.9" fill="url(#b)"/><path d="m79.3 11v10l4-2.5 4-2.5-4-2.5z" fill="#fff"/><path d="m30.6 9.98v11.8h2.47v-0.93h0.0312c0.505 0.75 1.25 1.12 2.23 1.12 1.09 0 1.96-0.404 2.61-1.21 0.651-0.807 0.977-1.88 0.977-3.21 0-1.23-0.279-2.2-0.836-2.91-0.557-0.708-1.35-1.06-2.38-1.06-1.12 0-1.99 0.466-2.6 1.4h-0.0312v-5.05h-2.47zm25.8 0.0391c-0.417 0-0.758 0.117-1.02 0.352-0.266 0.234-0.398 0.536-0.398 0.906 0 0.359 0.133 0.664 0.398 0.914 0.266 0.245 0.607 0.367 1.02 0.367 0.422 0 0.763-0.12 1.02-0.359 0.266-0.24 0.398-0.547 0.398-0.922 0-0.37-0.133-0.672-0.398-0.906-0.26-0.234-0.602-0.352-1.02-0.352zm-40.4 0.414c-0.594 0-1.16 0.0651-1.69 0.195-0.531 0.125-1 0.323-1.41 0.594-0.401 0.271-0.719 0.617-0.953 1.04-0.234 0.417-0.352 0.917-0.352 1.5 0 0.745 0.214 1.38 0.641 1.91 0.432 0.526 1.09 0.971 1.96 1.34 0.344 0.141 0.664 0.279 0.961 0.414 0.297 0.135 0.552 0.276 0.766 0.422 0.219 0.146 0.391 0.305 0.516 0.477 0.125 0.172 0.188 0.367 0.188 0.586 0 0.161-0.0391 0.312-0.117 0.453-0.0781 0.135-0.198 0.255-0.359 0.359-0.156 0.099-0.354 0.177-0.594 0.234-0.234 0.0573-0.51 0.0859-0.828 0.0859-0.542 0-1.08-0.0938-1.61-0.281-0.531-0.193-1.02-0.479-1.48-0.859v2.5c0.406 0.208 0.885 0.365 1.44 0.469 0.557 0.104 1.14 0.156 1.76 0.156 0.599 0 1.17-0.0573 1.7-0.172 0.542-0.115 1.02-0.302 1.42-0.562 0.406-0.266 0.727-0.609 0.961-1.03 0.24-0.427 0.359-0.953 0.359-1.58 0-0.453-0.0677-0.849-0.203-1.19-0.135-0.344-0.331-0.648-0.586-0.914s-0.562-0.503-0.922-0.711c-0.354-0.214-0.755-0.414-1.2-0.602-0.328-0.135-0.622-0.266-0.883-0.391-0.26-0.13-0.482-0.26-0.664-0.391-0.182-0.135-0.323-0.276-0.422-0.422-0.099-0.151-0.148-0.32-0.148-0.508-1e-6 -0.172 0.0443-0.326 0.133-0.461 0.0885-0.141 0.214-0.26 0.375-0.359 0.161-0.099 0.359-0.174 0.594-0.227 0.234-0.0573 0.495-0.0859 0.781-0.0859 0.208 0 0.427 0.0156 0.656 0.0469 0.234 0.0312 0.469 0.0807 0.703 0.148 0.234 0.0625 0.461 0.143 0.68 0.242 0.224 0.099 0.43 0.214 0.617 0.344v-2.34c-0.38-0.146-0.797-0.253-1.25-0.32-0.448-0.0729-0.964-0.109-1.55-0.109zm46.7 0.961-2.46 0.703v1.73h-1.3v1.82h1.3v3.66c1e-6 1.81 0.87 2.71 2.61 2.71 0.734 0 1.28-0.0964 1.65-0.289v-1.83c-0.276 0.151-0.544 0.227-0.805 0.227-0.661 0-0.992-0.417-0.992-1.25v-3.23h1.8v-1.82h-1.8v-2.43zm-17.2 2.23c-0.547 0-1.05 0.135-1.52 0.406-0.458 0.266-0.815 0.612-1.07 1.04h-0.0312v-1.25h-2.47v8h2.47v-4.45c0-0.573 0.125-1.03 0.375-1.36 0.255-0.333 0.594-0.5 1.02-0.5 0.839 0 1.26 0.565 1.26 1.7v4.61h2.47v-4.48c0-0.521 0.128-0.956 0.383-1.3s0.586-0.523 0.992-0.523c0.854 0 1.28 0.581 1.28 1.74v4.56h2.46v-4.98c0-2.15-0.87-3.22-2.61-3.22-1.18 0-2.08 0.497-2.69 1.49-0.417-0.995-1.19-1.49-2.32-1.49zm-24.8 0.195v4.83c0 2.24 0.927 3.37 2.78 3.37 1.02 0 1.84-0.471 2.45-1.41h0.0391v1.22h2.46v-8h-2.46v4.58c0 0.531-0.133 0.953-0.398 1.27-0.266 0.307-0.62 0.461-1.06 0.461-0.896 0-1.34-0.565-1.34-1.7v-4.61h-2.46zm34.4 0v8h2.47v-8h-2.47zm-20.4 1.7c0.526 0 0.93 0.188 1.21 0.562 0.286 0.37 0.43 0.885 0.43 1.55 0 0.797-0.156 1.41-0.469 1.85-0.307 0.432-0.742 0.648-1.3 0.648-0.464 0-0.844-0.169-1.14-0.508-0.297-0.339-0.445-0.766-0.445-1.28v-0.82c0-0.594 0.161-1.08 0.484-1.45 0.328-0.37 0.74-0.555 1.23-0.555z" fill="#fff"/></svg>
